<svg xmlns="http://www.w3.org/2000/svg" version="1.1" viewBox="0 0 504.7 504.7">
  <g id="hannover-js-logo">
    <rect id="hannover-js-logo__background" x="0" fill="#FEDF19" width="504.7" height="504.5"/>
    <path id="hannover-js-logo__hannover" fill="#3C3835" d="M132.5 421.2l38.6-23.3c7.4 13.2 14.2 24.4 30.4 24.4 15.6 0 25.4-6.1 25.4-29.8v-161h47.4v161.7c0 49.1-28.8 71.4-70.7 71.4C165.7 464.5 143.7 444.9 132.5 421.2M300 416.1l38.6-22.3c10.2 16.6 23.3 28.8 46.7 28.8 19.6 0 32.1-9.8 32.1-23.3 0-16.2-12.9-22-34.5-31.5l-11.8-5.1c-34.2-14.5-56.8-32.8-56.8-71.4 0-35.5 27.1-62.6 69.4-62.6 30.1 0 51.8 10.5 67.3 37.9L414 290.3c-8.1-14.5-16.9-20.3-30.4-20.3 -13.9 0-22.7 8.8-22.7 20.3 0 14.2 8.8 20 29.1 28.8l11.8 5.1c40.3 17.3 62.9 34.8 62.9 74.4 0 42.6-33.5 66-78.5 66C342.3 464.5 313.9 443.5 300 416.1"/>
    <path id="hannover-js-logo__js" fill="#3B3834" d="M56.3 69.9h10.5v26h21.7v-26h10.5v50.8H88.5v-15.5H66.7v15.5H56.3V69.9zM128.1 69.4h0.9l23.2 51.2h-11l-2.4-5.8h-20.6l-2.4 5.8h-10.1L128.1 69.4zM135.2 106.2l-3.7-8.8c-1.5-3.6-3.1-9.1-3.1-9.1s-1.5 5.5-3 9.1l-3.7 8.8H135.2zM174.2 97.1c-2.5-2.4-6.1-6.9-6.1-6.9s0.7 5.6 0.7 9.3v21.3h-9.8V69.4h1l25.6 24.1c2.5 2.3 6 6.9 6 6.9s-0.7-5.8-0.7-9.3V69.9h9.8v51.2h-1L174.2 97.1zM226.6 97.1c-2.5-2.4-6.1-6.9-6.1-6.9s0.7 5.6 0.7 9.3v21.3h-9.8V69.4h1l25.6 24.1c2.5 2.3 6 6.9 6 6.9s-0.7-5.8-0.7-9.3V69.9h9.8v51.2h-1L226.6 97.1zM262.2 95.3c0-15 11.7-26.1 26.3-26.1s26.3 11.1 26.3 26.1 -11.7 26.1-26.3 26.1S262.2 110.3 262.2 95.3zM304 95.3c0-9.5-6.3-16.7-15.5-16.7s-15.5 7.2-15.5 16.7 6.3 16.7 15.5 16.7S304 104.8 304 95.3zM315.4 69.9h11.2l8.7 19.6c1.9 4.3 4 11.5 4 11.5s1.9-7.1 3.9-11.5l8.5-19.6h10.2l-22.3 51.2h-1L315.4 69.9zM368.8 69.9h33.6v9.2h-23.2v16.1h20.4v9h-20.4v7.3h24.2v9.2h-34.7V69.9zM450.6 120.7h-12.1l-8.4-12.8c-1 0.1-2 0.2-3 0.2h-3.6v12.6h-10.5V69.9h14c14.2 0 22.7 6.8 22.7 19.2 0 7.9-3.5 12.9-9.8 15.8L450.6 120.7zM426.9 98.9c8.5 0 12.3-2.7 12.3-9.9s-3.9-10-12.3-10h-3.3v19.9H426.9z"/>
  </g>
</svg>